<svg version="1.1" id="Layer_1" xmlns="http://www.w3.org/2000/svg" xmlns:xlink="http://www.w3.org/1999/xlink" x="0px" y="0px"
	 width="100%" viewBox="0 0 500 500" enable-background="new 0 0 500 500" xml:space="preserve">
<path fill="#000000" opacity="1.000000" stroke="none" 
	d="
M229.000000,501.000000 
	C152.666687,501.000000 76.833366,501.000000 1.000041,501.000000 
	C1.000027,334.333405 1.000027,167.666779 1.000014,1.000130 
	C167.666565,1.000087 334.333130,1.000087 500.999756,1.000043 
	C500.999847,167.666519 500.999847,334.333038 500.999939,500.999786 
	C410.500000,501.000000 320.000000,501.000000 229.000000,501.000000 
M260.079712,133.020157 
	C254.385132,133.069000 248.690536,133.117844 242.151566,133.011169 
	C228.714828,135.211700 215.474716,137.667526 202.852036,143.457123 
	C177.030701,155.300430 157.965195,173.940643 145.170395,198.960861 
	C141.356216,206.419495 138.985764,214.720581 136.759003,222.856064 
	C134.738495,230.238144 133.813416,237.920059 132.341690,245.811279 
	C140.151199,245.811279 146.919174,245.811279 153.909805,245.811279 
	C159.175171,203.342117 180.248611,172.607803 221.658829,159.233047 
	C263.793365,145.624390 298.933990,159.237473 327.918884,191.412384 
	C332.513458,187.575272 336.817902,184.096512 340.972778,180.447388 
	C342.422485,179.174133 343.422577,177.691177 341.346100,175.717209 
	C336.828522,171.422699 332.617737,166.806519 328.123810,162.485855 
	C309.372070,144.457031 286.019379,136.898041 260.079712,133.020157 
M312.314545,255.816803 
	C304.117920,232.129166 295.921295,208.441544 287.724670,184.753922 
	C287.298676,184.813385 286.872650,184.872849 286.446655,184.932312 
	C275.134033,215.446869 263.821411,245.961411 252.492722,276.519348 
	C251.960129,274.487366 251.664688,272.557434 250.957809,270.792297 
	C246.027390,258.480652 240.836395,246.270691 236.068253,233.897369 
	C230.259232,218.822968 224.806946,203.611328 219.132492,188.484497 
	C218.419327,186.583374 217.293854,184.836914 216.359421,183.018799 
	C215.581146,184.959534 214.642532,186.852722 214.050430,188.848679 
	C209.998734,202.506424 205.891357,216.149887 202.058823,229.869720 
	C199.101135,240.457779 196.517715,251.150375 193.843521,261.503784 
	C173.461914,261.503784 153.383575,261.503784 133.377258,261.503784 
	C134.309692,267.330231 135.224594,273.047180 136.177048,278.998779 
	C158.085556,278.998779 179.730545,278.836456 201.369598,279.122559 
	C206.263947,279.187225 208.056046,277.825989 209.174454,272.954132 
	C211.731354,261.815979 215.212631,250.889999 218.318466,239.877853 
	C218.734283,239.868912 219.150101,239.859970 219.565918,239.851028 
	C230.176758,267.949280 240.787613,296.047577 251.744568,325.062347 
	C253.583511,322.973755 255.318039,321.811951 255.891800,320.229340 
	C263.033630,300.529449 269.958618,280.751099 277.046326,261.031372 
	C280.022705,252.750366 283.251770,244.560196 286.512482,235.941406 
	C290.882935,248.521927 295.719513,260.446533 298.976562,272.787964 
	C300.307800,277.832214 302.772339,276.975098 305.803162,276.985291 
	C318.453003,277.027924 331.103088,277.003235 343.973358,277.003235 
	C340.187195,291.849365 332.882416,304.494751 322.917450,315.426208 
	C306.254059,333.705750 285.598083,344.343506 260.767487,347.123047 
	C250.028870,348.325134 239.709702,347.381287 229.330338,345.047211 
	C203.650589,339.272339 183.838806,324.945221 169.806854,302.985962 
	C165.840576,296.778900 162.803665,292.501190 154.448929,294.749268 
	C150.490524,295.814392 145.814453,294.212280 140.530075,293.734100 
	C143.623276,299.769592 146.064896,305.184082 149.063705,310.270050 
	C160.758469,330.104431 176.759766,345.649048 197.338211,355.941589 
	C220.412521,367.482513 244.709183,371.595062 270.526886,367.156403 
	C292.798126,363.327484 312.319702,354.210663 329.029785,339.332458 
	C342.772644,327.096161 353.880554,312.641052 360.276703,295.166199 
	C364.416351,283.856384 368.783997,272.479919 368.853455,259.632721 
	C368.853455,258.503204 368.853455,257.373657 368.853455,256.159088 
	C350.123352,256.159088 331.564056,256.159088 312.314545,255.816803 
z"/>
<path fill="#F8F8F8" opacity="1.000000" stroke="none" 
	d="
M368.124939,260.045532 
	C368.783997,272.479919 364.416351,283.856384 360.276703,295.166199 
	C353.880554,312.641052 342.772644,327.096161 329.029785,339.332458 
	C312.319702,354.210663 292.798126,363.327484 270.526886,367.156403 
	C244.709183,371.595062 220.412521,367.482513 197.338211,355.941589 
	C176.759766,345.649048 160.758469,330.104431 149.063705,310.270050 
	C146.064896,305.184082 143.623276,299.769592 140.530075,293.734100 
	C145.814453,294.212280 150.490524,295.814392 154.448929,294.749268 
	C162.803665,292.501190 165.840576,296.778900 169.806854,302.985962 
	C183.838806,324.945221 203.650589,339.272339 229.330338,345.047211 
	C239.709702,347.381287 250.028870,348.325134 260.767487,347.123047 
	C285.598083,344.343506 306.254059,333.705750 322.917450,315.426208 
	C332.882416,304.494751 340.187195,291.849365 343.973358,277.003235 
	C331.103088,277.003235 318.453003,277.027924 305.803162,276.985291 
	C302.772339,276.975098 300.307800,277.832214 298.976562,272.787964 
	C295.719513,260.446533 290.882935,248.521927 286.512482,235.941406 
	C283.251770,244.560196 280.022705,252.750366 277.046326,261.031372 
	C269.958618,280.751099 263.033630,300.529449 255.891800,320.229340 
	C255.318039,321.811951 253.583511,322.973755 251.744568,325.062347 
	C240.787613,296.047577 230.176758,267.949280 219.565918,239.851028 
	C219.150101,239.859970 218.734283,239.868912 218.318466,239.877853 
	C215.212631,250.889999 211.731354,261.815979 209.174454,272.954132 
	C208.056046,277.825989 206.263947,279.187225 201.369598,279.122559 
	C179.730545,278.836456 158.085556,278.998779 136.177048,278.998779 
	C135.224594,273.047180 134.309692,267.330231 133.377258,261.503784 
	C153.383575,261.503784 173.461914,261.503784 193.843521,261.503784 
	C196.517715,251.150375 199.101135,240.457779 202.058823,229.869720 
	C205.891357,216.149887 209.998734,202.506424 214.050430,188.848679 
	C214.642532,186.852722 215.581146,184.959534 216.359421,183.018799 
	C217.293854,184.836914 218.419327,186.583374 219.132492,188.484497 
	C224.806946,203.611328 230.259232,218.822968 236.068253,233.897369 
	C240.836395,246.270691 246.027390,258.480652 250.957809,270.792297 
	C251.664688,272.557434 251.960129,274.487366 252.492722,276.519348 
	C263.821411,245.961411 275.134033,215.446869 286.446655,184.932312 
	C286.872650,184.872849 287.298676,184.813385 287.724670,184.753922 
	C295.921295,208.441544 304.117920,232.129166 312.764221,256.372009 
	C314.903320,257.284821 316.579742,257.866302 318.284180,257.965271 
	C334.885864,258.929321 351.652039,255.919510 368.124939,260.045532 
z"/>
<path fill="#FEFEFE" opacity="1.000000" stroke="none" 
	d="
M261.005524,133.172363 
	C286.019379,136.898041 309.372070,144.457031 328.123810,162.485855 
	C332.617737,166.806519 336.828522,171.422699 341.346100,175.717209 
	C343.422577,177.691177 342.422485,179.174133 340.972778,180.447388 
	C336.817902,184.096512 332.513458,187.575272 327.918884,191.412384 
	C298.933990,159.237473 263.793365,145.624390 221.658829,159.233047 
	C180.248611,172.607803 159.175171,203.342117 153.909805,245.811279 
	C146.919174,245.811279 140.151199,245.811279 132.341690,245.811279 
	C133.813416,237.920059 134.738495,230.238144 136.759003,222.856064 
	C138.985764,214.720581 141.356216,206.419495 145.170395,198.960861 
	C157.965195,173.940643 177.030701,155.300430 202.852036,143.457123 
	C215.474716,137.667526 228.714828,135.211700 242.681076,133.471130 
	C248.154617,134.140137 253.097687,134.429703 258.043518,134.489899 
	C259.025360,134.501862 260.017914,133.634323 261.005524,133.172363 
M240.483398,134.588043 
	C240.483398,134.588043 240.416946,134.476883 240.483398,134.588043 
z"/>
<path fill="#FFFFFF" opacity="1.000000" stroke="none" 
	d="
M368.489197,259.839111 
	C351.652039,255.919510 334.885864,258.929321 318.284180,257.965271 
	C316.579742,257.866302 314.903320,257.284821 313.109314,256.543152 
	C331.564056,256.159088 350.123352,256.159088 368.853455,256.159088 
	C368.853455,257.373657 368.853455,258.503204 368.489197,259.839111 
M365.590546,258.517578 
	C365.590546,258.517578 365.475861,258.586517 365.590546,258.517578 
z"/>
<path fill="#F8F8FC" opacity="1.000000" stroke="none" 
	d="
M260.542603,133.096252 
	C260.017914,133.634323 259.025360,134.501862 258.043518,134.489899 
	C253.097687,134.429703 248.154617,134.140137 243.103271,133.548889 
	C248.690536,133.117844 254.385132,133.069000 260.542603,133.096252 
z"/>
<path fill="#F8F8FC" opacity="1.000000" stroke="none" 
	d="
M240.450165,134.532471 
	C240.416946,134.476883 240.483398,134.588043 240.450165,134.532471 
z"/>
<path fill="#F8F8F8" opacity="1.000000" stroke="none" 
	d="
M365.533203,258.552063 
	C365.475861,258.586517 365.590546,258.517578 365.533203,258.552063 
z"/>
</svg>